<svg xmlns="http://www.w3.org/2000/svg" xmlns:xlink="http://www.w3.org/1999/xlink" aria-hidden="true" role="img" color="white"  class="iconify iconify--fontisto" width="0.96em" height="1em" preserveAspectRatio="xMidYMid meet" viewBox="0 0 23 24" data-icon="fontisto:laboratory">
<path fill="currentColor" d="M22.171 19.68L14.819 8.369V2.962h1.708V0H6.098v2.965H7.82v5.407L.454 19.68A2.792 2.792 0 0 0 2.791 24h17.034a2.8 2.8 0 0 0 2.34-4.331l.007.011zm-.905 2.302a1.63 1.63 0 0 1-1.434.854H2.791a1.635 1.635 0 0 1-1.37-2.531l-.004.006l7.549-11.6V2.96h4.686v5.754l7.541 11.6c.17.251.272.561.272.895c0 .285-.074.553-.204.785l.004-.008z"></path>
</svg>